<?xml version="1.0" encoding="utf-8"?>
<!-- Generator: Adobe Illustrator 21.0.0, SVG Export Plug-In . SVG Version: 6.00 Build 0)  -->
<svg version="1.1" id="Capa_1" xmlns="http://www.w3.org/2000/svg" xmlns:xlink="http://www.w3.org/1999/xlink" x="0px" y="0px"
	 viewBox="0 0 100 102.5" style="enable-background:new 0 0 100 102.5;" xml:space="preserve">
<path d="M48.9,49.3c-0.9,0-1.5,0.1-1.8,0.2v11.6c0.3,0.1,0.9,0.1,1.4,0.1c3.6,0,6-2,6-6.2C54.5,51.3,52.3,49.3,48.9,49.3z"/>
<path d="M36.6,51.9c0-1.6-1.1-2.6-3.1-2.6c-0.8,0-1.4,0.1-1.7,0.2v5.2c0.3,0.1,0.8,0.1,1.3,0.1C35.3,54.8,36.6,53.7,36.6,51.9z"/>
<path d="M64.4,7.8C62.2,5.6,60.7,5,57.6,5H18.5c-4.3,0-6,1.7-6,6v78c0,4.3,1.7,6,6,6h63c4.3,0,6-1.7,6-6V34.9c0-3.1-0.6-4.6-2.8-6.8
	L64.4,7.8z M82.3,88.2c0,1.1-0.4,1.6-1.6,1.6H19.3c-1.1,0-1.6-0.4-1.6-1.6V68.8h64.5V88.2z M27.8,64.1V46.6c1.2-0.2,3-0.4,5.4-0.4
	c2.5,0,4.2,0.5,5.4,1.4c1.1,0.9,1.9,2.4,1.9,4.1c0,1.7-0.6,3.2-1.6,4.2c-1.4,1.3-3.4,1.9-5.7,1.9c-0.5,0-1,0-1.4-0.1v6.3H27.8z
	 M43.1,64V46.6c1.5-0.2,3.4-0.4,5.4-0.4c3.4,0,5.5,0.6,7.2,1.9c1.8,1.4,3,3.5,3,6.7c0,3.4-1.2,5.7-2.9,7.2c-1.9,1.5-4.7,2.3-8.2,2.3
	C45.6,64.3,44.1,64.1,43.1,64z M71.7,53.7V57h-6.4v7.1h-4V46.4h10.8v3.3h-6.8v4L71.7,53.7L71.7,53.7z M82.3,41.7H17.7V11.8
	c0-1.1,0.5-1.6,1.6-1.6h39.8c0.6,0,0.8,0.2,0.8,0.8v15.5c0,4.3,1.7,6,6,6h15.5c0.6,0,0.8,0.2,0.8,0.8V41.7z"/>
</svg>
